<?xml version="1.0" standalone="no"?>
<!DOCTYPE svg PUBLIC "-//W3C//DTD SVG 20010904//EN"
 "http://www.w3.org/TR/2001/REC-SVG-20010904/DTD/svg10.dtd">
<svg version="1.0" xmlns="http://www.w3.org/2000/svg"
 width="152.000000pt" height="152.000000pt" viewBox="0 0 152.000000 152.000000"
 preserveAspectRatio="xMidYMid meet">
<metadata>
Created by potrace 1.11, written by Peter Selinger 2001-2013
</metadata>
<g transform="translate(0.000000,152.000000) scale(0.100000,-0.100000)"
fill="#000000" stroke="none">
<path d="M1018 1482 c-21 -4 -25 -48 -5 -55 17 -6 47 11 47 27 0 19 -22 33
-42 28z"/>
<path d="M1093 1443 c-11 -37 -8 -63 8 -63 20 0 67 43 62 56 -4 11 -10 11 -26
3 -18 -9 -20 -9 -10 1 6 7 9 19 6 26 -9 25 -28 15 -40 -23z"/>
<path d="M1268 1456 c-19 -14 -25 -66 -8 -66 6 0 10 -11 10 -25 0 -16 6 -25
15 -25 8 0 15 -4 15 -9 0 -6 -9 -8 -19 -6 -11 2 -27 -5 -37 -16 -15 -17 -16
-22 -4 -44 8 -14 22 -25 34 -25 25 0 48 33 39 56 -3 9 0 20 8 24 11 7 10 13
-5 29 -18 20 -18 22 -2 40 21 24 18 49 -9 67 -16 10 -23 10 -37 0z"/>
<path d="M310 1420 c0 -11 6 -20 14 -20 8 0 18 -9 21 -20 3 -11 11 -20 16 -20
5 0 4 -9 -3 -20 -10 -16 -10 -22 3 -36 15 -14 18 -14 33 1 13 14 14 20 5 31
-9 11 -9 18 -1 26 15 15 44 -19 38 -43 -5 -24 12 -49 36 -49 17 0 18 -3 8 -15
-9 -11 -16 -12 -31 -2 -36 22 -76 -25 -49 -58 18 -22 57 -19 65 5 5 16 9 18
25 8 15 -10 23 -9 38 5 10 9 28 17 39 17 26 0 32 7 26 31 -7 24 -39 25 -52 2
-6 -10 -11 -12 -11 -5 0 6 -7 12 -16 12 -11 0 -14 5 -10 16 11 27 -3 54 -28
54 -23 0 -29 21 -12 48 4 6 5 16 1 22 -9 14 -34 0 -28 -16 10 -25 -14 -15 -26
12 -9 21 -17 25 -37 21 -13 -2 -27 0 -30 4 -10 17 -34 9 -34 -11z"/>
<path d="M954 1426 c-3 -9 -16 -16 -29 -16 -13 0 -25 -6 -28 -14 -4 -9 -14
-12 -26 -9 -30 8 -53 -14 -40 -38 12 -23 32 -24 49 -4 9 11 16 12 26 4 9 -7
19 -7 36 2 35 19 58 18 58 -2 0 -30 37 -43 66 -24 27 17 29 27 14 56 -11 20
-54 26 -65 9 -11 -18 -24 -10 -27 17 -3 30 -25 42 -34 19z"/>
<path d="M1205 1430 c-3 -6 1 -13 10 -16 19 -8 30 0 20 15 -8 14 -22 14 -30 1z"/>
<path d="M237 1401 c-9 -18 -11 -33 -6 -37 15 -9 -1 -25 -20 -19 -23 7 -43
-16 -31 -35 8 -12 13 -13 30 -2 11 7 20 10 20 6 0 -10 -28 -34 -40 -34 -8 0
-10 -9 -6 -24 6 -25 -14 -51 -22 -28 -2 7 -8 12 -14 12 -6 0 -17 8 -24 18 -13
16 -15 16 -28 0 -7 -10 -18 -18 -25 -18 -6 0 -9 -12 -8 -30 5 -38 13 -46 30
-31 11 9 20 5 40 -15 16 -15 33 -24 42 -20 9 3 15 0 15 -9 0 -8 5 -15 11 -15
5 0 7 -5 4 -10 -12 -19 26 -23 40 -4 18 24 19 46 3 43 -7 -1 -21 1 -30 4 -10
4 -25 9 -33 12 -17 5 -21 45 -4 45 6 0 13 -9 16 -20 6 -22 43 -28 43 -7 0 7
-10 21 -22 31 l-22 19 28 24 c15 13 25 30 23 38 -3 7 1 16 9 19 12 5 13 10 3
28 -12 22 -11 22 8 6 17 -16 22 -16 38 -4 28 20 3 48 -34 39 -24 -6 -25 -5
-12 11 10 12 11 20 4 27 -7 7 -15 1 -26 -20z"/>
<path d="M497 1397 c-8 -21 8 -39 29 -35 27 5 25 42 -2 46 -12 2 -24 -3 -27
-11z"/>
<path d="M1148 1399 c-10 -5 -18 -17 -18 -25 0 -8 -4 -13 -9 -9 -15 9 -24 -16
-11 -28 9 -8 14 -9 16 -1 3 6 17 9 33 6 23 -3 30 1 36 17 4 13 1 28 -5 36 -14
17 -19 18 -42 4z"/>
<path d="M1326 1384 c-7 -19 10 -44 30 -44 16 0 33 30 27 48 -7 18 -50 15 -57
-4z"/>
<path d="M1222 1363 c4 -21 33 -25 33 -3 0 8 -8 16 -18 18 -14 3 -18 -1 -15
-15z"/>
<path d="M548 1359 c-33 -19 -15 -69 24 -69 15 0 38 27 38 44 0 7 -31 36 -38
36 -4 0 -15 -5 -24 -11z"/>
<path d="M303 1318 c2 -7 10 -13 17 -13 7 0 15 6 18 13 2 7 -5 12 -18 12 -13
0 -20 -5 -17 -12z"/>
<path d="M767 1323 c-12 -12 -7 -43 7 -43 8 0 16 -7 20 -15 3 -8 12 -15 20
-15 27 0 23 25 -7 53 -35 31 -32 29 -40 20z"/>
<path d="M810 1315 c0 -8 7 -15 15 -15 8 0 15 7 15 15 0 8 -7 15 -15 15 -8 0
-15 -7 -15 -15z"/>
<path d="M883 1323 c-18 -6 -16 -30 2 -37 9 -3 18 1 22 10 7 18 -7 33 -24 27z"/>
<path d="M940 1320 c-8 -5 -10 -10 -5 -10 6 0 2 -5 -7 -11 -21 -12 -24 -39 -5
-39 15 0 37 -45 28 -57 -3 -5 -14 -12 -23 -16 -35 -13 -19 -27 22 -21 33 5 40
4 40 -10 0 -9 7 -19 15 -22 8 -4 12 -10 9 -16 -3 -5 -15 0 -26 11 -14 16 -24
19 -35 12 -11 -6 -21 -4 -31 5 -16 16 -42 19 -42 4 0 -5 -7 -10 -16 -10 -8 0
-12 5 -9 10 3 6 -2 13 -12 17 -10 4 -23 13 -28 20 -8 11 -20 12 -53 5 -24 -6
-42 -6 -42 -1 0 5 -7 9 -15 9 -9 0 -12 6 -8 15 7 19 -24 55 -47 55 -36 0 -56
-50 -31 -77 15 -15 15 -21 5 -31 -17 -16 -25 -15 -18 1 8 21 -23 42 -40 28
-10 -9 -16 -9 -21 -1 -5 8 -10 8 -20 0 -11 -9 -10 -16 2 -41 8 -16 19 -27 24
-24 13 9 11 35 -3 35 -6 0 -9 3 -6 6 9 8 48 -19 48 -33 0 -7 -6 -12 -12 -10
-16 3 -15 -8 1 -50 14 -36 45 -51 67 -32 13 10 17 10 24 -1 10 -16 43 -5 37
13 -2 6 -14 12 -26 11 -11 0 -21 5 -21 12 0 9 14 12 50 9 34 -2 54 1 64 11 8
8 19 14 25 14 6 0 11 7 11 15 0 8 -7 15 -15 15 -8 0 -15 -4 -15 -10 0 -5 -7
-7 -16 -3 -10 4 -22 -1 -29 -11 -8 -10 -16 -13 -19 -7 -4 5 -2 13 4 16 6 4 8
16 4 28 -6 20 -6 20 11 4 13 -14 20 -15 31 -6 8 6 11 16 7 23 -4 8 -2 7 7 -1
7 -6 18 -9 25 -7 7 3 19 -8 26 -26 11 -23 19 -30 34 -26 20 5 20 5 0 -10 -12
-9 -21 -11 -23 -4 -5 15 -29 12 -36 -5 -4 -10 2 -19 16 -24 21 -8 21 -8 -2
-14 -13 -3 -30 -1 -37 5 -21 17 -46 1 -41 -27 4 -17 1 -25 -8 -25 -19 0 -17
-30 3 -52 16 -18 15 -20 -8 -36 -13 -9 -31 -17 -39 -17 -8 0 -16 -10 -18 -22
-2 -16 2 -23 13 -23 8 0 18 -7 22 -16 3 -9 13 -14 24 -11 11 3 22 1 25 -4 10
-17 34 -9 34 11 0 13 -7 20 -19 20 -26 0 -35 16 -15 24 8 3 14 14 12 23 -2 10
3 24 12 31 13 11 13 13 0 25 -19 15 -22 47 -5 47 7 0 16 7 19 16 3 8 11 12 16
9 6 -4 16 -2 23 3 16 14 49 -10 42 -30 -3 -8 0 -20 8 -27 16 -13 47 -5 47 12
0 6 6 3 13 -7 26 -35 84 4 61 41 -16 26 -31 26 -54 3 -17 -17 -24 -19 -36 -10
-7 7 -11 16 -8 22 4 5 11 5 18 -1 9 -7 17 -4 29 9 14 17 20 18 37 8 24 -15 37
-4 20 17 -11 13 -9 15 13 15 14 0 29 -5 33 -12 4 -7 3 -8 -5 -4 -16 10 -26
-21 -12 -38 8 -9 8 -16 2 -20 -7 -5 -6 -15 1 -32 9 -18 18 -24 36 -22 52 6 54
65 4 78 -16 4 -19 9 -12 20 9 13 12 13 21 -2 5 -10 15 -18 20 -18 13 0 33 -20
42 -42 7 -20 32 -24 42 -7 4 5 0 18 -9 28 -21 23 -20 30 4 24 22 -6 53 14 44
28 -3 5 0 9 6 9 17 0 3 -51 -18 -66 -13 -10 -14 -15 -5 -24 14 -15 36 -3 27
13 -5 8 -3 8 7 0 18 -17 49 -16 68 1 11 10 21 12 31 5 13 -8 11 -12 -10 -28
-13 -11 -27 -19 -30 -19 -22 2 -30 -5 -30 -27 0 -30 22 -33 47 -6 10 10 28 23
39 29 19 10 24 8 40 -16 18 -26 20 -31 23 -52 2 -19 31 -10 31 10 0 10 5 31
12 44 9 22 8 29 -7 46 -10 11 -22 17 -26 14 -5 -3 -9 4 -9 15 0 25 -25 28 -39
4 -5 -10 -12 -15 -16 -11 -3 3 3 14 14 25 12 11 17 23 12 31 -7 11 -11 11 -22
0 -22 -20 -55 -19 -74 2 -10 11 -15 23 -12 26 10 10 -12 44 -27 44 -8 0 -16
10 -20 22 -4 18 -8 20 -18 10 -8 -8 -9 -15 -1 -23 5 -5 8 -20 6 -33 -4 -17
-10 -22 -27 -19 -16 3 -26 -2 -34 -19 -7 -13 -10 -15 -8 -6 3 9 -2 22 -10 28
-14 12 -16 10 -18 -20 -2 -27 -21 -11 -26 22 -6 38 -36 50 -57 22 -7 -10 -13
-13 -13 -7 0 6 7 16 15 23 8 7 12 17 9 22 -4 6 1 8 14 4 24 -8 41 12 21 25 -8
5 -15 4 -17 -1 -5 -15 -19 -12 -26 5 -3 8 0 14 7 12 7 -1 11 6 9 16 -2 10 3
17 13 17 8 0 14 -3 14 -7 -4 -22 3 -33 19 -33 10 0 23 -5 29 -11 12 -12 33 -4
33 12 0 5 -6 9 -14 9 -7 0 -16 9 -19 20 -3 11 -12 20 -20 20 -8 0 -17 7 -21
15 -8 21 -36 19 -36 -3 0 -19 -17 -37 -57 -59 -17 -10 -24 -9 -32 0 -14 17 19
38 49 30 18 -5 21 -2 18 18 -3 22 -8 24 -50 23 -50 -1 -56 4 -36 24 16 16 -2
34 -22 22z m-250 -167 c0 -14 -3 -23 -6 -20 -8 8 -46 -12 -40 -21 2 -4 -9 -7
-25 -8 -28 -1 -29 0 -12 15 10 10 26 20 35 24 11 4 15 12 12 22 -4 10 0 15 15
15 16 0 21 -6 21 -27z m240 -62 c5 -11 6 -22 1 -25 -4 -3 -13 6 -19 19 -14 30
2 34 18 6z"/>
<path d="M1154 1315 c-5 -12 -9 -13 -21 -4 -10 9 -17 9 -25 1 -14 -14 0 -34
20 -30 10 2 24 -5 33 -16 13 -15 19 -17 37 -7 22 12 27 27 16 55 -8 20 -53 21
-60 1z"/>
<path d="M1354 1319 c-3 -6 -2 -15 4 -21 13 -13 32 -2 32 18 0 16 -26 19 -36
3z"/>
<path d="M1411 1316 c-9 -10 -9 -20 -2 -33 7 -15 5 -22 -10 -31 -42 -27 -8
-92 41 -77 31 10 38 75 8 75 -5 0 -2 7 6 16 21 20 20 50 0 58 -23 9 -30 8 -43
-8z"/>
<path d="M980 1300 c0 -15 5 -20 18 -18 9 2 17 10 17 18 0 8 -8 16 -17 18 -13
2 -18 -3 -18 -18z"/>
<path d="M600 1285 c0 -8 7 -15 15 -15 8 0 15 7 15 15 0 8 -7 15 -15 15 -8 0
-15 -7 -15 -15z"/>
<path d="M289 1283 c-1 -5 -1 -11 0 -15 0 -4 -9 -10 -20 -13 -26 -8 -21 -40 6
-40 13 0 20 6 19 18 -1 9 4 17 12 17 8 0 14 9 14 20 0 18 -28 30 -31 13z"/>
<path d="M334 1275 c-4 -9 -2 -21 4 -27 15 -15 44 -1 40 19 -4 23 -36 29 -44
8z"/>
<path d="M1326 1265 c-6 -17 17 -31 34 -20 8 5 8 11 -1 21 -15 18 -25 18 -33
-1z"/>
<path d="M750 1234 c0 -45 23 -41 27 4 2 23 -2 32 -12 32 -11 0 -15 -11 -15
-36z"/>
<path d="M870 1262 c-40 -12 -45 -63 -8 -83 23 -12 68 12 64 33 -9 42 -28 59
-56 50z"/>
<path d="M790 1230 c0 -11 7 -20 15 -20 8 0 15 6 15 14 0 8 -7 16 -15 20 -10
4 -15 -1 -15 -14z"/>
<path d="M312 1224 c-12 -8 -22 -22 -22 -30 0 -8 -7 -14 -15 -14 -8 0 -15 -6
-15 -14 0 -19 17 -29 25 -16 4 7 13 7 26 -1 27 -14 58 -2 65 26 11 44 -29 74
-64 49z"/>
<path d="M1196 1227 c-15 -11 -15 -15 -3 -31 17 -23 47 -15 47 13 0 24 -23 33
-44 18z"/>
<path d="M1257 1223 c-4 -3 -7 -17 -7 -29 0 -23 31 -41 50 -29 5 3 11 0 11 -7
1 -7 2 -19 3 -27 1 -17 26 -28 26 -11 0 7 8 9 20 5 24 -8 39 20 21 38 -6 6
-11 19 -11 29 0 24 -40 25 -41 1 0 -12 -4 -8 -11 10 -9 26 -44 38 -61 20z"/>
<path d="M460 1175 c-10 -12 -10 -18 0 -30 24 -29 58 -7 44 30 -4 8 -12 15
-19 15 -7 0 -18 -7 -25 -15z"/>
<path d="M90 1165 c-15 -19 3 -47 26 -38 18 7 18 27 0 42 -10 9 -16 8 -26 -4z"/>
<path d="M1114 1165 c-8 -21 6 -37 27 -32 11 3 23 -1 27 -9 11 -19 44 -7 40
15 -2 9 -13 16 -25 16 -13 0 -28 6 -35 13 -16 16 -27 15 -34 -3z"/>
<path d="M394 1162 c-6 -4 -13 -15 -17 -24 -7 -19 -42 -24 -52 -8 -4 7 -13 7
-26 0 -11 -6 -17 -15 -14 -20 3 -6 0 -7 -8 -4 -17 6 -31 -11 -22 -26 5 -8 11
-7 20 0 8 7 19 9 24 5 6 -3 19 -2 29 4 11 6 23 6 33 0 12 -8 10 -12 -9 -27
l-23 -18 23 -27 c15 -17 28 -23 36 -18 11 7 10 11 -2 24 -22 21 -20 34 4 32
28 -2 37 -14 20 -26 -10 -7 -11 -12 -4 -15 6 -3 9 -16 6 -29 -4 -24 11 -35 23
-15 3 5 12 7 19 4 16 -6 40 21 31 36 -3 5 -15 10 -26 10 -21 0 -27 19 -6 21 6
1 17 2 22 4 6 1 16 3 23 3 6 1 12 8 12 16 0 8 8 13 17 12 10 0 19 7 21 17 5
23 -27 35 -42 16 -21 -29 -96 -46 -96 -23 0 7 -8 15 -17 17 -13 4 -12 5 5 6
12 0 25 8 29 17 7 19 -18 46 -33 36z"/>
<path d="M1467 1154 c-14 -14 -7 -35 11 -32 9 2 17 10 17 17 0 16 -18 25 -28
15z"/>
<path d="M1399 1118 c-10 -19 2 -48 22 -48 18 0 39 32 30 48 -13 23 -40 23
-52 0z"/>
<path d="M447 1115 c-5 -10 0 -15 14 -15 12 0 19 5 17 12 -6 18 -25 20 -31 3z"/>
<path d="M73 1113 c-17 -6 -16 -28 1 -42 21 -17 45 15 25 33 -8 8 -20 12 -26
9z"/>
<path d="M113 1108 c2 -7 10 -13 17 -13 7 0 15 6 18 13 2 7 -5 12 -18 12 -13
0 -20 -5 -17 -12z"/>
<path d="M155 1100 c-4 -6 -1 -17 5 -25 15 -18 -1 -20 -18 -3 -9 9 -15 9 -23
1 -16 -16 -3 -45 18 -41 10 2 26 -5 35 -14 25 -25 53 -22 65 5 14 31 -1 57
-32 57 -16 0 -25 6 -25 15 0 17 -16 20 -25 5z"/>
<path d="M1336 1101 c-3 -5 1 -14 8 -20 16 -13 32 2 21 19 -8 12 -22 13 -29 1z"/>
<path d="M267 1064 c-9 -10 2 -24 19 -24 8 0 14 7 14 15 0 15 -21 21 -33 9z"/>
<path d="M543 1034 c-8 -22 6 -32 52 -38 22 -2 42 -5 45 -5 2 -1 -1 -6 -8 -13
-19 -19 -42 -18 -63 3 -15 15 -24 17 -39 9 -11 -6 -20 -19 -20 -30 0 -12 -5
-17 -14 -14 -16 6 -30 -11 -21 -26 5 -8 11 -7 20 0 10 8 20 8 33 1 14 -7 25
-6 40 5 12 8 26 13 31 9 5 -3 12 -1 16 5 3 5 15 10 26 10 10 0 19 5 19 11 0 7
8 17 17 24 15 11 15 15 4 29 -16 19 -38 21 -43 4 -3 -8 -14 -5 -35 10 -37 26
-51 28 -60 6z"/>
<path d="M64 1025 c-7 -18 3 -35 21 -35 15 0 24 19 18 38 -6 17 -32 15 -39 -3z"/>
<path d="M502 1026 c1 -10 8 -17 13 -17 15 1 12 24 -3 29 -9 3 -13 -2 -10 -12z"/>
<path d="M1442 1028 c5 -15 28 -18 29 -3 0 6 -7 12 -17 13 -10 3 -15 -1 -12
-10z"/>
<path d="M286 1014 c-3 -9 -4 -19 -1 -24 3 -4 -2 -10 -10 -14 -8 -3 -15 -17
-15 -31 0 -14 -4 -25 -10 -25 -5 0 -10 -9 -10 -20 0 -18 5 -22 26 -19 4 0 12
-10 18 -22 6 -12 16 -24 21 -26 17 -5 36 13 38 35 1 12 5 22 9 22 4 0 5 -13 2
-30 -6 -26 -3 -31 21 -40 31 -12 50 -2 58 30 6 23 -26 55 -47 47 -18 -7 -11
18 11 44 11 14 11 18 -1 28 -17 15 -36 7 -36 -15 0 -8 -6 -14 -14 -14 -14 0
-29 -27 -22 -39 3 -4 -6 -8 -20 -9 -28 -2 -29 19 -1 30 12 5 17 16 15 30 -2
13 3 28 10 33 17 14 5 45 -18 45 -10 0 -21 -7 -24 -16z"/>
<path d="M797 1013 c-9 -9 -9 -43 1 -43 4 0 8 -11 8 -25 1 -14 -2 -25 -7 -25
-15 0 -10 -47 6 -60 14 -11 14 -15 0 -37 -18 -28 -11 -50 11 -32 7 6 11 16 7
23 -3 6 -3 8 2 4 4 -4 14 -3 21 3 26 22 26 -13 -1 -41 -15 -16 -24 -33 -20
-39 8 -15 28 -3 22 13 -4 9 7 11 34 9 33 -2 39 0 39 16 0 20 21 33 36 23 5 -4
9 -14 9 -22 0 -20 34 -25 41 -7 5 15 -27 57 -44 57 -4 0 -12 10 -17 23 -14 30
-58 35 -77 8 -20 -28 -31 -15 -12 14 14 21 13 25 -6 43 -15 13 -21 30 -19 49
5 40 -15 66 -34 46z"/>
<path d="M130 985 c-6 -8 -10 -22 -8 -32 4 -24 47 -24 62 0 9 15 7 21 -8 33
-25 18 -31 18 -46 -1z"/>
<path d="M225 990 c-3 -6 1 -13 10 -16 19 -8 30 0 20 15 -8 14 -22 14 -30 1z"/>
<path d="M846 983 c-12 -12 -6 -33 9 -33 8 0 15 6 15 14 0 17 -14 28 -24 19z"/>
<path d="M694 966 c-8 -22 3 -33 18 -18 9 9 9 15 0 24 -9 9 -13 7 -18 -6z"/>
<path d="M911 951 c-13 -13 -21 -16 -24 -8 -3 9 -7 9 -17 0 -14 -12 -4 -37 11
-28 5 4 17 -1 26 -10 11 -11 26 -15 44 -11 16 3 29 1 31 -6 7 -21 41 0 35 22
-3 11 -1 20 4 20 5 0 9 7 9 15 0 8 -7 15 -15 15 -8 0 -15 -6 -15 -14 0 -7 -7
-19 -16 -26 -8 -8 -14 -9 -13 -4 4 21 -2 34 -21 44 -15 8 -24 6 -39 -9z"/>
<path d="M1160 955 c0 -8 7 -15 15 -15 8 0 15 7 15 15 0 8 -7 15 -15 15 -8 0
-15 -7 -15 -15z"/>
<path d="M1206 954 c-4 -10 -2 -22 3 -27 15 -15 46 -3 46 18 0 26 -40 33 -49
9z"/>
<path d="M33 944 c-8 -21 23 -52 38 -37 15 15 49 5 42 -14 -3 -8 -11 -12 -19
-9 -7 3 -17 -1 -23 -8 -13 -16 -4 -46 14 -46 14 0 43 30 29 30 -5 0 -3 4 4 9
9 5 22 1 37 -13 13 -11 30 -27 39 -34 9 -7 16 -21 16 -32 0 -10 4 -21 9 -25
16 -9 24 15 11 30 -10 12 -10 15 0 15 10 0 9 5 -3 18 -12 13 -13 22 -5 36 8
14 6 23 -11 39 -18 18 -24 20 -41 9 -29 -18 -39 -15 -50 14 -8 21 -13 24 -24
15 -10 -9 -15 -8 -20 4 -7 20 -35 19 -43 -1z"/>
<path d="M1082 944 c-38 -19 -44 -30 -28 -44 17 -13 51 -6 42 9 -3 5 1 11 9
15 10 3 15 -1 15 -13 0 -20 17 -31 38 -24 18 7 15 43 -5 49 -10 3 -25 9 -33
13 -8 4 -26 2 -38 -5z"/>
<path d="M207 944 c-9 -10 2 -24 19 -24 8 0 14 7 14 15 0 15 -21 21 -33 9z"/>
<path d="M421 941 c-17 -11 -7 -41 13 -41 22 0 30 20 15 36 -9 8 -19 10 -28 5z"/>
<path d="M653 934 c-9 -23 11 -38 26 -20 13 16 7 36 -10 36 -5 0 -12 -7 -16
-16z"/>
<path d="M1354 935 c-3 -8 -3 -19 0 -24 9 -13 36 -2 36 14 0 19 -30 27 -36 10z"/>
<path d="M483 903 c-7 -3 -13 -9 -13 -15 0 -6 -7 -16 -17 -23 -9 -7 -13 -17
-9 -23 10 -17 36 -15 36 2 0 8 4 17 9 20 5 3 8 0 7 -7 0 -6 4 -13 9 -14 12 -2
10 47 -2 57 -4 4 -14 5 -20 3z"/>
<path d="M590 902 c0 -5 -11 -7 -24 -5 -15 3 -25 -1 -29 -11 -7 -17 10 -29 34
-25 28 3 39 -1 39 -16 0 -18 -4 -19 -30 -3 -16 10 -23 10 -35 -3 -17 -17 -12
-44 10 -53 8 -3 21 1 29 9 18 19 32 20 17 1 -6 -7 -9 -21 -5 -30 3 -9 1 -16
-5 -16 -17 0 -13 -37 5 -44 9 -4 22 -2 29 4 9 8 14 7 17 -1 3 -8 10 -6 22 7
18 18 18 17 12 -3 -4 -12 -2 -24 3 -28 6 -3 2 -14 -10 -26 -15 -15 -17 -24 -9
-38 8 -15 6 -20 -10 -24 -24 -6 -26 -39 -5 -57 8 -7 21 -10 30 -6 9 3 19 -3
25 -14 13 -25 46 -26 59 -3 7 14 12 15 25 4 8 -7 20 -10 26 -6 5 3 10 1 10 -4
0 -6 -11 -11 -24 -11 -26 0 -39 -20 -30 -45 7 -18 35 -20 51 -4 6 6 9 18 6 25
-3 8 1 14 11 14 9 0 16 -4 16 -10 0 -5 9 -10 20 -10 30 0 24 26 -10 40 -21 9
-30 19 -30 35 0 25 -22 49 -35 37 -5 -4 -5 1 -2 10 8 21 -11 34 -26 19 -9 -9
-9 -14 0 -19 18 -11 -2 -36 -25 -30 -10 3 -25 2 -33 -2 -10 -6 -14 -2 -15 15
-1 15 5 25 17 28 22 6 26 46 7 65 -9 9 -9 12 0 12 7 0 21 -9 33 -21 11 -11 26
-18 32 -16 15 5 36 -22 37 -45 0 -11 8 -18 20 -18 13 0 20 -7 20 -20 0 -21 27
-40 48 -33 6 3 12 18 12 34 0 29 -7 33 -44 29 -10 -1 -15 3 -12 8 7 12 -18 34
-29 24 -5 -4 -5 -1 -1 6 4 7 1 15 -8 18 -11 4 -13 12 -6 29 10 27 -14 70 -33
58 -7 -4 -7 0 1 10 8 9 11 21 7 27 -8 13 -35 13 -35 -1 0 -6 -7 -8 -15 -5 -10
3 -19 -1 -23 -12 -10 -25 -29 -24 -28 1 1 16 -5 22 -19 22 -13 0 -20 -6 -19
-17 2 -20 -16 -24 -33 -7 -17 17 -4 39 22 39 15 0 26 8 30 20 7 22 -11 63 -25
55 -5 -3 -10 5 -12 17 -2 15 -11 24 -25 26 -13 2 -23 -1 -23 -6z m180 -160 c0
-4 -9 -13 -20 -20 -23 -14 -26 -8 -7 13 13 16 27 19 27 7z"/>
<path d="M1197 904 c-16 -16 -6 -35 16 -33 12 2 28 0 35 -4 11 -8 31 18 21 27
-9 9 -66 16 -72 10z"/>
<path d="M1302 898 c-16 -16 -15 -33 4 -48 22 -19 54 12 38 37 -14 22 -27 26
-42 11z"/>
<path d="M955 870 c-3 -6 1 -13 10 -16 19 -8 30 0 20 15 -8 14 -22 14 -30 1z"/>
<path d="M1367 868 c-6 -18 11 -48 28 -48 17 0 34 30 28 48 -3 6 -15 12 -28
12 -13 0 -25 -6 -28 -12z"/>
<path d="M245 860 c-7 -12 2 -30 16 -30 12 0 12 27 0 35 -5 3 -12 1 -16 -5z"/>
<path d="M1006 862 c-10 -17 2 -47 19 -51 25 -4 49 28 34 46 -13 14 -45 18
-53 5z"/>
<path d="M1087 864 c-14 -14 -7 -35 11 -32 9 2 17 10 17 17 0 16 -18 25 -28
15z"/>
<path d="M1140 850 c-11 -11 -17 -26 -14 -35 4 -8 1 -15 -5 -15 -8 0 -10 -11
-5 -35 7 -41 -7 -46 -26 -10 -10 19 -20 24 -44 22 -20 -2 -31 -8 -31 -17 0
-10 8 -14 27 -12 24 3 28 -1 38 -37 8 -30 16 -41 30 -41 11 0 20 -4 20 -10 0
-5 -7 -10 -15 -10 -19 0 -20 -26 0 -33 9 -4 22 5 35 23 13 18 26 27 35 23 10
-3 15 1 15 12 0 13 -6 15 -29 10 -25 -5 -29 -3 -33 19 -3 15 -1 26 3 26 5 0 9
7 9 15 0 8 -5 15 -11 15 -5 0 -7 5 -4 10 10 16 55 12 55 -4 0 -8 -6 -16 -12
-19 -10 -3 -10 -7 -1 -17 12 -13 37 -4 28 10 -3 5 -1 11 5 15 5 3 7 18 4 32
-6 23 -5 24 15 11 20 -11 24 -11 37 6 8 11 14 16 14 12 0 -5 7 -3 15 4 19 15
4 37 -16 24 -24 -15 -69 -15 -69 0 0 13 -20 26 -41 26 -5 0 -18 -9 -29 -20z"/>
<path d="M121 821 c-19 -12 -9 -36 15 -36 12 0 19 -7 19 -20 0 -23 30 -28 30
-5 0 8 4 21 9 28 11 18 -13 45 -29 32 -7 -6 -15 -6 -21 0 -5 5 -15 5 -23 1z"/>
<path d="M1306 821 c-9 -15 23 -36 36 -23 5 5 7 15 4 21 -9 13 -33 14 -40 2z"/>
<path d="M250 804 c0 -8 6 -14 14 -14 7 0 16 -9 19 -20 3 -13 14 -20 31 -20
30 0 48 27 35 52 -12 22 -99 24 -99 2z"/>
<path d="M692 803 c2 -13 13 -18 38 -18 50 0 47 27 -3 32 -33 3 -38 1 -35 -14z"/>
<path d="M496 801 c-3 -5 0 -14 8 -20 10 -9 15 -8 19 3 9 22 -15 37 -27 17z"/>
<path d="M382 784 c-14 -25 -3 -53 24 -60 42 -11 72 34 42 64 -17 17 -55 15
-66 -4z"/>
<path d="M1395 790 c-8 -13 4 -32 16 -25 12 8 12 35 0 35 -6 0 -13 -4 -16 -10z"/>
<path d="M1342 773 c2 -10 10 -18 18 -18 22 0 18 29 -3 33 -14 3 -18 -1 -15
-15z"/>
<path d="M245 759 c-4 -5 -14 -8 -23 -4 -8 3 -19 0 -24 -7 -12 -19 -10 -28 7
-28 8 0 15 -7 15 -15 0 -9 -7 -18 -15 -21 -8 -4 -15 -12 -15 -20 0 -8 7 -14
15 -14 8 0 15 5 15 11 0 5 4 8 9 4 14 -8 9 -44 -6 -49 -17 -7 -17 -33 1 -39
15 -6 29 6 40 37 3 11 12 16 21 12 8 -3 20 0 27 7 7 7 22 12 33 12 14 0 19 6
18 20 -1 10 3 27 8 37 14 26 -16 39 -55 23 -38 -15 -55 -10 -49 14 5 21 -12
37 -22 20z m0 -29 c3 -5 1 -10 -4 -10 -6 0 -11 5 -11 10 0 6 2 10 4 10 3 0 8
-4 11 -10z m91 -52 c5 -8 0 -9 -15 -5 -12 3 -28 -1 -36 -10 -16 -16 -18 -13
-9 11 7 18 49 21 60 4z"/>
<path d="M1256 754 c-9 -8 -14 -19 -11 -24 3 -4 -2 -10 -10 -14 -16 -6 -21
-36 -5 -36 5 0 14 8 19 18 6 9 11 11 11 5 0 -7 9 -13 21 -13 11 0 18 -4 14 -9
-7 -12 12 -24 25 -16 8 5 8 11 1 19 -6 7 -7 23 -4 36 4 16 1 27 -12 36 -24 18
-30 17 -49 -2z"/>
<path d="M471 746 c-14 -16 -4 -46 15 -46 8 0 14 -4 14 -10 0 -5 7 -10 15 -10
8 0 15 7 15 15 0 8 -5 15 -11 15 -5 0 -7 5 -4 10 7 11 -12 40 -25 40 -4 0 -13
-6 -19 -14z"/>
<path d="M530 740 c0 -11 6 -20 13 -20 19 0 27 10 20 26 -8 21 -33 17 -33 -6z"/>
<path d="M856 742 c-2 -4 -1 -14 4 -22 5 -9 5 -19 -1 -27 -6 -7 -8 -17 -4 -23
8 -13 35 -13 35 0 0 5 6 7 14 4 7 -3 26 6 41 20 28 26 45 26 45 0 0 -8 -4 -13
-8 -10 -4 2 -14 1 -22 -4 -12 -8 -13 -13 -3 -29 8 -13 9 -22 2 -26 -7 -5 -6
-11 2 -21 8 -10 7 -17 -5 -30 -20 -19 -5 -44 25 -44 21 0 27 34 9 45 -8 5 -7
11 0 20 7 8 9 23 5 34 -8 27 9 34 30 11 17 -19 17 -20 -6 -39 -23 -19 -23 -21
-7 -37 14 -14 20 -15 33 -4 9 7 14 21 13 30 -2 9 3 24 11 33 11 14 11 18 -5
24 -11 4 -24 14 -31 22 -12 17 -7 35 7 26 5 -3 14 3 19 14 9 16 7 20 -7 23 -9
2 -22 -3 -29 -12 -11 -13 -12 -12 -13 8 0 22 -23 31 -34 13 -3 -4 -16 -6 -28
-4 -17 3 -26 -2 -33 -18 -5 -13 -17 -25 -25 -27 -12 -4 -11 -1 2 15 14 15 15
22 6 31 -14 14 -35 16 -42 4z"/>
<path d="M130 725 c0 -8 7 -15 15 -15 8 0 15 7 15 15 0 8 -7 15 -15 15 -8 0
-15 -7 -15 -15z"/>
<path d="M1334 708 c-7 -22 19 -52 40 -45 17 6 29 34 23 51 -10 24 -54 21 -63
-6z"/>
<path d="M431 701 c-17 -11 -7 -41 13 -41 22 0 30 20 15 36 -9 8 -19 10 -28 5z"/>
<path d="M563 702 c-8 -5 -9 -13 -3 -22 7 -12 12 -12 22 -2 14 14 -1 35 -19
24z"/>
<path d="M375 691 c-8 -15 3 -31 21 -31 9 0 14 7 12 17 -4 20 -24 28 -33 14z"/>
<path d="M619 678 c0 -1 -3 -20 -5 -41 -4 -33 -2 -38 13 -35 21 4 26 69 6 76
-7 2 -13 2 -14 0z"/>
<path d="M1235 670 c-3 -6 -3 -20 1 -33 6 -19 5 -20 -9 -9 -29 24 -57 23 -69
-3 -8 -19 -8 -28 2 -40 10 -12 10 -15 -4 -15 -9 0 -19 7 -22 15 -7 18 -35 20
-52 3 -14 -14 2 -48 24 -48 8 0 12 -5 9 -10 -4 -6 -2 -17 4 -24 9 -11 8 -14
-5 -12 -9 0 -19 -5 -21 -11 -3 -8 3 -13 15 -13 29 0 34 -12 9 -24 -27 -14 -34
-48 -13 -65 32 -27 76 14 55 52 -6 10 -4 17 7 21 10 4 14 14 11 25 -3 12 1 22
12 26 15 6 15 7 -1 19 -12 9 -14 16 -6 29 5 10 13 15 17 12 5 -2 14 2 21 10 7
8 21 15 32 15 12 0 18 5 15 13 -3 7 1 21 9 32 10 13 11 22 3 32 -13 15 -35 17
-44 3z m-80 -130 c3 -6 -1 -7 -9 -4 -18 7 -21 14 -7 14 6 0 13 -4 16 -10z"/>
<path d="M464 658 c-3 -5 3 -12 15 -15 33 -8 25 -20 -14 -19 -21 1 -35 6 -35
14 0 20 -31 14 -54 -11 -11 -12 -25 -22 -31 -22 -5 0 -11 -9 -13 -20 -2 -11
-9 -26 -15 -33 -8 -10 -7 -16 4 -23 10 -6 15 -3 17 11 2 11 7 18 12 15 5 -3
14 4 20 15 6 11 7 20 3 20 -9 0 30 29 40 30 4 0 7 -9 7 -20 0 -10 10 -25 22
-31 18 -10 24 -8 39 10 10 12 24 20 31 19 7 -2 13 6 13 17 1 11 4 25 8 32 4 6
4 14 0 16 -14 8 -63 5 -69 -5z"/>
<path d="M557 654 c-11 -12 13 -43 28 -38 22 9 19 44 -3 44 -10 0 -22 -3 -25
-6z"/>
<path d="M1297 628 c-7 -26 8 -48 33 -48 25 0 43 25 35 50 -9 29 -61 28 -68
-2z"/>
<path d="M892 623 c4 -21 33 -25 33 -3 0 8 -8 16 -18 18 -14 3 -18 -1 -15 -15z"/>
<path d="M267 596 c-3 -8 0 -20 8 -26 11 -9 16 -7 24 8 8 16 7 21 -5 26 -21 8
-21 8 -27 -8z"/>
<path d="M537 603 c-4 -3 -7 -14 -7 -24 0 -9 -10 -19 -21 -22 -17 -5 -21 -12
-17 -36 3 -17 1 -31 -4 -31 -5 0 -6 -9 -3 -20 7 -22 -13 -28 -32 -9 -8 8 -13
8 -17 0 -10 -15 3 -33 20 -27 7 3 16 1 19 -4 10 -16 25 -11 25 8 1 19 23 52
35 52 4 0 3 -6 -3 -12 -5 -7 -9 -31 -8 -53 1 -35 4 -40 24 -38 13 2 22 -3 22
-11 0 -8 7 -16 15 -20 26 -10 16 -21 -20 -22 -18 0 -32 3 -29 8 3 4 0 17 -6
28 -15 28 -60 23 -71 -8 -12 -31 23 -67 51 -52 24 13 33 13 24 -1 -3 -6 0 -15
7 -20 23 -14 47 -10 53 9 6 18 36 27 36 10 0 -4 -7 -8 -15 -8 -18 0 -20 -16
-4 -26 7 -4 15 0 20 8 8 15 49 20 49 6 0 -5 0 -13 0 -19 0 -5 -4 -8 -9 -5 -14
9 -41 -4 -41 -19 0 -24 20 -27 56 -10 33 15 44 38 24 50 -5 3 -7 12 -3 20 3 8
0 15 -6 15 -6 0 -8 7 -4 16 3 8 12 13 20 10 39 -15 77 45 43 67 -14 8 -18 18
-13 35 5 20 2 23 -13 20 -11 -2 -19 -10 -20 -18 -3 -46 -34 -57 -73 -26 -19
15 -43 17 -59 4 -9 -8 -16 -8 -23 -1 -12 12 5 27 31 28 8 0 16 9 18 19 4 16 0
18 -27 13 -17 -4 -31 -5 -31 -3 0 20 16 36 35 36 30 0 40 27 14 40 -15 9 -21
7 -25 -5 -3 -8 -10 -12 -15 -9 -5 3 -2 12 6 21 12 12 13 18 4 29 -13 15 -22
18 -32 7z m153 -233 c0 -5 -7 -10 -15 -10 -12 0 -13 -4 -5 -19 12 -23 13 -42
1 -23 -4 7 -17 15 -27 17 -10 2 -20 4 -21 4 -2 1 5 10 15 20 18 21 52 28 52
11z"/>
<path d="M722 588 c5 -15 28 -18 29 -3 0 6 -7 12 -17 13 -10 3 -15 -1 -12 -10z"/>
<path d="M1243 568 c-5 -7 -8 -19 -7 -25 1 -7 2 -17 3 -22 0 -5 10 -11 21 -14
21 -5 50 16 50 37 0 31 -48 48 -67 24z"/>
<path d="M371 556 c-9 -10 -8 -16 3 -25 10 -9 16 -8 25 3 9 10 8 16 -3 25 -10
9 -16 8 -25 -3z"/>
<path d="M419 543 c-8 -9 -13 -24 -11 -35 3 -19 -13 -25 -23 -8 -9 15 -42 12
-48 -3 -8 -20 8 -39 29 -37 34 4 38 0 18 -14 -14 -11 -16 -17 -7 -26 16 -17
30 -5 37 33 6 30 10 34 31 30 20 -4 25 0 31 22 5 21 2 31 -11 42 -24 17 -30
16 -46 -4z"/>
<path d="M1000 525 c-7 -8 -16 -12 -21 -9 -5 3 -12 -2 -16 -12 -5 -14 -8 -14
-24 7 -16 22 -18 23 -25 5 -4 -10 -2 -21 5 -26 7 -4 12 -10 12 -14 -5 -33 13
-35 39 -3 10 12 22 18 26 14 5 -4 2 -12 -5 -17 -8 -4 -12 -17 -9 -27 4 -14 0
-19 -15 -20 -39 -3 -49 -56 -14 -77 25 -16 52 4 52 40 0 34 19 52 50 46 29 -5
41 24 15 38 -14 8 -21 6 -28 -6 -8 -15 -10 -15 -15 0 -4 10 -1 16 8 16 8 0 15
4 15 9 0 5 9 7 20 4 35 -9 22 16 -16 32 -44 18 -39 18 -54 0z"/>
<path d="M633 504 c-9 -23 13 -40 32 -24 12 10 13 16 4 26 -15 18 -28 18 -36
-2z"/>
<path d="M665 460 c-8 -14 3 -30 21 -30 8 0 14 9 14 20 0 21 -24 28 -35 10z"/>
<path d="M874 455 c-15 -11 -17 -17 -8 -32 16 -26 58 -24 62 4 4 30 -29 47
-54 28z"/>
<path d="M815 413 c-9 -9 -14 -24 -12 -34 3 -11 1 -21 -3 -24 -4 -3 -6 -14 -3
-25 5 -17 1 -19 -36 -14 -33 4 -41 2 -41 -11 0 -12 8 -15 35 -12 42 5 63 -13
34 -31 -16 -10 -19 -10 -19 3 0 20 -29 19 -37 -1 -6 -17 15 -37 29 -27 5 2 15
-1 23 -7 20 -17 45 4 38 30 -3 11 -1 20 5 20 15 0 34 -28 27 -40 -8 -13 12
-40 30 -40 20 0 27 31 12 49 -8 9 -17 24 -21 35 -4 11 -12 16 -21 12 -9 -3
-15 0 -15 9 0 8 -4 15 -8 15 -4 0 -8 9 -8 20 0 10 2 17 4 15 10 -10 42 17 42
35 0 29 -35 44 -55 23z"/>
<path d="M430 400 c0 -15 5 -20 18 -18 9 2 17 10 17 18 0 8 -8 16 -17 18 -13
2 -18 -3 -18 -18z"/>
<path d="M1024 399 c-10 -17 13 -36 27 -22 12 12 4 33 -11 33 -5 0 -12 -5 -16
-11z"/>
<path d="M1051 366 c-9 -11 -10 -20 -1 -35 6 -12 14 -21 18 -21 19 0 44 28 40
46 -4 24 -40 30 -57 10z"/>
<path d="M895 360 c-3 -6 1 -13 10 -16 19 -8 30 0 20 15 -8 14 -22 14 -30 1z"/>
<path d="M1005 350 c-10 -17 12 -37 25 -24 8 8 6 15 -4 23 -10 9 -16 9 -21 1z"/>
<path d="M852 333 c4 -21 33 -25 33 -3 0 8 -8 16 -18 18 -14 3 -18 -1 -15 -15z"/>
<path d="M902 313 c-28 -53 39 -103 70 -53 11 18 14 18 30 3 22 -19 48 -10 48
17 0 25 -26 37 -50 23 -13 -9 -19 -7 -28 8 -15 24 -58 25 -70 2z"/>
<path d="M550 261 c0 -17 51 -34 63 -22 14 14 7 19 -31 27 -21 4 -32 3 -32 -5z"/>
<path d="M696 208 c-8 -12 -13 -25 -10 -30 9 -14 -30 5 -42 20 -13 18 -35 7
-28 -13 4 -8 9 -13 13 -10 4 2 5 -9 3 -25 -3 -22 1 -29 19 -35 17 -6 26 -2 39
15 10 13 22 20 27 17 15 -9 53 22 53 43 0 18 -27 40 -49 40 -5 0 -17 -10 -25
-22z"/>
<path d="M927 207 c-8 -21 8 -39 29 -35 27 5 25 42 -2 46 -12 2 -24 -3 -27
-11z"/>
<path d="M836 203 c-4 -4 -15 -8 -23 -8 -9 0 -18 -6 -21 -14 -3 -10 2 -12 19
-8 20 5 24 2 24 -18 0 -26 -20 -34 -28 -12 -4 9 -7 9 -18 -1 -12 -11 -11 -15
4 -26 9 -7 17 -18 17 -24 0 -16 18 -24 40 -17 20 6 28 39 12 49 -5 3 -7 23 -5
45 3 39 -4 50 -21 34z"/>
<path d="M708 125 c-3 -3 -3 -15 -1 -26 7 -27 48 -22 48 6 0 19 -33 33 -47 20z"/>
<path d="M768 82 c-23 -5 -34 -48 -18 -67 28 -34 77 -5 66 39 -6 26 -21 35
-48 28z"/>
</g>
</svg>
