<?xml version="1.0" encoding="utf-8"?>
<!-- Generated by IcoMoon.io -->
<!DOCTYPE svg PUBLIC "-//W3C//DTD SVG 1.1//EN" "http://www.w3.org/Graphics/SVG/1.1/DTD/svg11.dtd">
<svg version="1.1" xmlns="http://www.w3.org/2000/svg" xmlns:xlink="http://www.w3.org/1999/xlink" width="32" height="28" viewBox="0 0 32 28">
<path d="M3.313 12l9.734 10.391-4.688-10.391h-5.047zM16 24.063l5.453-12.063h-10.906zM8.406 10l3.187-6h-4.094l-4.5 6h5.406zM18.953 22.391l9.734-10.391h-5.047zM10.672 10h10.656l-3.187-6h-4.281zM23.594 10h5.406l-4.5-6h-4.094zM25.797 2.406l6 8c0.297 0.375 0.266 0.922-0.063 1.281l-15 16c-0.187 0.203-0.453 0.313-0.734 0.313s-0.547-0.109-0.734-0.313l-15-16c-0.328-0.359-0.359-0.906-0.063-1.281l6-8c0.187-0.266 0.484-0.406 0.797-0.406h18c0.313 0 0.609 0.141 0.797 0.406z"></path>
</svg>
